<?xml version="1.0" standalone="no"?>
<!DOCTYPE svg PUBLIC "-//W3C//DTD SVG 20010904//EN"
 "http://www.w3.org/TR/2001/REC-SVG-20010904/DTD/svg10.dtd">
<svg version="1.0" xmlns="http://www.w3.org/2000/svg"
 width="450.000000pt" height="450.000000pt" viewBox="0 0 450.000000 450.000000"
 preserveAspectRatio="xMidYMid meet">
<metadata>
Created by potrace 1.15, written by Peter Selinger 2001-2017
</metadata>
<g transform="translate(0.000000,450.000000) scale(0.100000,-0.100000)"
fill="#000000" stroke="none">
<path d="M1950 4484 c-566 -74 -1090 -370 -1453 -819 -242 -299 -395 -635
-469 -1030 -20 -105 -23 -153 -23 -385 0 -212 4 -284 18 -360 34 -184 82 -353
140 -495 35 -87 160 -320 207 -389 30 -43 62 -88 70 -101 67 -100 296 -333
427 -435 8 -7 10 21 6 108 -18 390 125 766 398 1047 113 116 234 207 357 268
45 23 82 44 82 47 0 3 -15 14 -32 25 -18 10 -64 48 -102 84 -220 211 -329 483
-313 780 24 432 317 790 744 908 87 25 115 28 253 28 138 0 166 -3 253 -28
558 -154 870 -717 700 -1262 -30 -97 -96 -225 -156 -302 -54 -70 -170 -182
-214 -208 -18 -11 -33 -23 -33 -27 0 -4 35 -25 78 -47 191 -96 396 -284 522
-477 158 -243 240 -539 228 -825 -2 -60 -1 -109 4 -109 31 0 351 325 418 425
8 13 40 58 70 101 47 69 172 302 207 389 58 142 106 311 140 495 14 76 18 148
18 360 -1 291 -12 386 -75 611 -244 866 -990 1510 -1878 1623 -152 20 -445 19
-592 0z"/>
<path d="M2070 3701 c-190 -41 -344 -124 -481 -261 -280 -279 -358 -703 -194
-1058 157 -340 490 -552 865 -552 375 0 708 212 865 552 129 281 108 620 -57
889 -65 106 -197 239 -301 303 -206 128 -467 175 -697 127z"/>
<path d="M1655 1852 c-160 -84 -281 -179 -399 -314 -242 -275 -363 -647 -331
-1022 8 -106 11 -109 160 -198 365 -217 735 -318 1165 -318 356 0 669 69 975
216 109 52 277 151 325 192 l35 30 0 188 c0 207 -11 283 -66 449 -114 344
-366 633 -687 789 l-80 39 -85 -36 c-144 -62 -240 -81 -407 -81 -166 0 -265
19 -403 79 -44 19 -88 35 -96 35 -9 0 -56 -22 -106 -48z"/>
</g>
</svg>
